<?xml version="1.0" standalone="no"?>
<!DOCTYPE svg PUBLIC "-//W3C//DTD SVG 20010904//EN"
 "http://www.w3.org/TR/2001/REC-SVG-20010904/DTD/svg10.dtd">
<svg version="1.0" xmlns="http://www.w3.org/2000/svg"
 width="600.000000pt" height="600.000000pt" viewBox="0 0 600.000000 600.000000"
 preserveAspectRatio="xMidYMid meet">
<metadata>
Created by potrace 1.11, written by Peter Selinger 2001-2013
</metadata>
<g transform="translate(0.000000,600.000000) scale(0.100000,-0.100000)"
fill="#000000" stroke="none">
<path d="M2907 5434 c-1 -1 -54 -4 -118 -8 -64 -3 -123 -8 -130 -10 -8 -3 -30
-7 -49 -10 -54 -9 -93 -16 -120 -22 -14 -3 -35 -8 -46 -10 -129 -24 -369 -113
-539 -199 -250 -126 -429 -256 -635 -464 -393 -394 -623 -877 -697 -1461 -10
-81 -6 -443 6 -540 59 -470 246 -903 545 -1265 60 -72 262 -274 331 -331 271
-220 601 -388 930 -472 66 -16 136 -33 155 -36 19 -3 44 -8 55 -10 140 -27
462 -38 640 -22 283 25 575 109 850 245 116 58 319 181 376 229 8 7 43 35 79
64 162 129 380 371 499 553 150 231 291 559 336 782 2 10 6 29 9 43 64 273 68
678 10 970 -97 489 -316 901 -669 1256 -365 368 -796 592 -1320 688 -85 16
-216 27 -348 29 -81 2 -149 2 -150 1z m291 -328 c37 -4 92 -11 122 -16 30 -5
71 -12 90 -15 81 -13 274 -69 347 -101 17 -8 34 -14 38 -14 14 0 251 -119 288
-144 21 -14 40 -26 43 -26 3 0 45 -28 92 -62 405 -292 693 -702 822 -1171 24
-88 25 -90 45 -207 42 -244 38 -495 -11 -765 -24 -134 -93 -341 -164 -490
-349 -737 -1096 -1209 -1910 -1209 -110 0 -249 11 -317 23 -27 5 -68 12 -92
16 -68 10 -275 72 -376 112 -525 210 -957 638 -1173 1163 -32 80 -98 289 -107
343 -3 17 -8 39 -10 47 -2 8 -7 38 -11 65 -3 28 -7 52 -9 55 -7 11 -18 182
-18 280 -2 394 100 763 303 1101 348 577 960 959 1625 1015 44 3 81 7 82 9 5
4 236 -3 301 -9z"/>
<path d="M1480 4075 c-14 -17 -12 -361 3 -373 7 -6 61 -10 130 -9 64 1 125 -1
135 -4 16 -6 17 -52 17 -690 l0 -684 -145 -5 -145 -5 -2 -184 c-1 -103 2 -190
7 -196 11 -13 983 -15 996 -2 10 10 12 348 2 369 -7 15 -27 18 -141 20 l-132
3 0 877 c0 482 -4 880 -8 885 -13 13 -706 11 -717 -2z"/>
<path d="M3573 4073 c-8 -21 -9 -342 -1 -362 6 -17 20 -19 125 -19 65 0 128
-1 140 -1 l21 -1 0 -690 -1 -690 -138 0 c-122 0 -139 -2 -146 -17 -11 -22 -9
-360 1 -371 12 -12 985 -10 995 2 5 6 8 94 7 196 l-1 185 -137 3 -138 3 0 879
c0 692 -3 881 -12 887 -7 4 -170 8 -362 8 -280 1 -349 -2 -353 -12z"/>
<path d="M2252 3584 c-16 -11 -27 17 527 -1326 72 -175 131 -322 131 -327 0
-5 6 -11 13 -13 10 -4 141 -3 158 1 6 1 10 10 124 286 48 116 93 224 100 240
42 96 430 1030 448 1077 11 32 18 61 14 64 -12 12 -427 11 -437 -2 -5 -6 -77
-174 -160 -375 -83 -200 -152 -365 -154 -366 -2 -2 -20 38 -41 89 -21 51 -44
107 -51 123 -7 17 -28 68 -47 115 -59 147 -170 415 -174 419 -8 10 -437 5
-451 -5z"/>
</g>
</svg>
